<svg xmlns="http://www.w3.org/2000/svg" xmlns:xlink="http://www.w3.org/1999/xlink" viewBox="0 35 100 35" version="1.1" x="0px" y="0px">
    <g stroke="none" stroke-width="1" fill="none" fill-rule="evenodd">
        <g>
            <path d="M53.521427,41.076528 C52.9424253,40.481978 52.0014186,40.4871924 51.4309045,41.076528 L43.4649213,49.3053116 C42.0549323,50.7372788 44.1704143,52.8857359 45.5804033,51.4537687 L50.3064752,46.6540292 C50.6919689,46.2625266 51.0044733,46.3913064 51.0044733,46.9498167 L51.0044733,58.4809401 C51.0044733,59.3199675 51.6740685,60 52.5002183,60 C53.3263681,60 53.9959633,59.3199675 53.9959633,58.4809401 L53.9959633,46.9498167 C53.9959633,46.3949552 54.3030976,46.2571015 54.6938973,46.6540292 L59.4195347,51.4537687 C60.8300222,52.8857359 62.9450057,50.7372788 61.5350167,49.3053116 L53.521427,41.076528 Z" fill="#1f2937" transform="translate(52.500000, 50.000000) rotate(-90.000000) translate(-52.500000, -50.000000)"/>
            <path d="M27.1895563,48.9359837 C26.6029021,49.5226379 26.6026373,50.4770974 27.1895563,51.0640163 L38.9402033,62.8146634 C39.8311812,63.7056412 41.7493088,64.5 43.0116395,64.5 L72.9967998,64.5 C73.8311248,64.5 74.5042196,63.8292956 74.5042196,63.0038998 L74.5042196,36.9961002 C74.5042196,36.1669776 73.8336182,35.5 72.9967998,35.5 L43.0116395,35.5 C41.7478288,35.5 39.8324983,36.2930417 38.9402033,37.1853366 L27.1895563,48.9359837 Z M43.0116395,32.5 L72.9967998,32.5 C75.4868445,32.5 77.5042196,34.5064735 77.5042196,36.9961002 L77.5042196,63.0038998 C77.5042196,65.4885439 75.4855945,67.5 72.9967998,67.5 L43.0116395,67.5 C40.9537341,67.5 38.2725229,66.3896236 36.818883,64.9359837 L25.0682359,53.1853366 C23.3094806,51.4265813 23.3102723,48.572627 25.0682359,46.8146634 L36.818883,35.0640163 C38.273894,33.6090053 40.9523304,32.5 43.0116395,32.5 Z" fill="#1f2937" fill-rule="nonzero"/>
        </g>
    </g>
</svg>
