<svg xmlns="http://www.w3.org/2000/svg" xmlns:xlink="http://www.w3.org/1999/xlink" version="1.1" x="0px" y="0px" viewBox="0 0 32 40" enable-background="new 0 0 32 32" xml:space="preserve"><g><rect fill="none" width="32" height="32" /></g><g><g><path d="M16,31C7.729,31,1,24.271,1,16S7.729,1,16,1s15,6.729,15,15S24.271,31,16,31z M16,3C8.832,3,3,8.832,3,16s5.832,13,13,13    s13-5.832,13-13S23.168,3,16,3z " fill="#7d7d7d" /></g><g><path d="M16,18v-2c1.654,0,3-1.346,3-3s-1.346-3-3-3s-3,1.346-3,3h-2c0-2.757,2.243-5,5-5s5,2.243,5,5S18.757,18,16,18z" fill="#7d7d7d" /></g><g><rect x="15" y="16" width="2" height="4" fill="#7d7d7d" /></g><g><rect x="15" y="22" width="2" height="2" fill="#7d7d7d" /></g></g></svg>