<svg xmlns="http://www.w3.org/2000/svg" viewBox="0 0 24 30" x="0px" y="0px">
  <g data-name="Layer 2">
    <path d="M12,.25A11.75,11.75,0,1,0,23.75,12,11.763,11.763,0,0,0,12,.25Zm0,1.5a10.256,10.256,0,0,1,10.212,9.5H17a.749.749,0,0,0-.689.455l-2.2,5.121-3.4-11.047a.75.75,0,0,0-1.341-.2L5.6,11.25H1.788A10.256,10.256,0,0,1,12,1.75Zm0,20.5a10.256,10.256,0,0,1-10.212-9.5H6a.749.749,0,0,0,.624-.334L9.748,7.73l3.535,11.491a.752.752,0,0,0,.677.528H14a.75.75,0,0,0,.689-.455l2.805-6.545h4.718A10.256,10.256,0,0,1,12,22.25Z" fill="#bcbcbc" />
  </g>
</svg>
